<svg width="5858" height="2026" xmlns="http://www.w3.org/2000/svg" xmlns:xlink="http://www.w3.org/1999/xlink" xml:space="preserve" overflow="hidden"><g transform="translate(-22 -2282)"><g><path d="M154 3613.5C154 3565.73 192.728 3527 240.502 3527L586.498 3527C634.272 3527 673 3565.73 673 3613.5L673 3959.5C673 4007.27 634.272 4046 586.498 4046L240.502 4046C192.728 4046 154 4007.27 154 3959.5Z" stroke="#000000" stroke-width="10.3125" stroke-linecap="butt" stroke-linejoin="miter" stroke-miterlimit="8" stroke-opacity="1" fill="#FFFFFF" fill-rule="evenodd" fill-opacity="1"/><path d="M1173 3396.84C1173 3325.13 1231.13 3267 1302.84 3267L1822.16 3267C1893.87 3267 1952 3325.13 1952 3396.84L1952 3916.16C1952 3987.87 1893.87 4046 1822.16 4046L1302.84 4046C1231.13 4046 1173 3987.87 1173 3916.16Z" stroke="#000000" stroke-width="10.3125" stroke-linecap="butt" stroke-linejoin="miter" stroke-miterlimit="8" stroke-opacity="1" fill="#FFFFFF" fill-rule="evenodd" fill-opacity="1"/><path d="M1217 3548.17C1217 3518.25 1241.25 3494 1271.17 3494L1487.83 3494C1517.75 3494 1542 3518.25 1542 3548.17L1542 3764.83C1542 3794.75 1517.75 3819 1487.83 3819L1271.17 3819C1241.25 3819 1217 3794.75 1217 3764.83Z" stroke="#000000" stroke-width="10.3125" stroke-linecap="square" stroke-linejoin="miter" stroke-miterlimit="8" stroke-dasharray="30.9375 10.3125" stroke-opacity="1" fill="#FFFFFF" fill-rule="evenodd" fill-opacity="1"/><path d="M1583 3548.17C1583 3518.25 1607.25 3494 1637.17 3494L1853.83 3494C1883.75 3494 1908 3518.25 1908 3548.17L1908 3764.83C1908 3794.75 1883.75 3819 1853.83 3819L1637.17 3819C1607.25 3819 1583 3794.75 1583 3764.83Z" stroke="#000000" stroke-width="10.3125" stroke-linecap="square" stroke-linejoin="miter" stroke-miterlimit="8" stroke-dasharray="30.9375 10.3125" stroke-opacity="1" fill="#FFFFFF" fill-rule="evenodd" fill-opacity="1"/><path d="M2647 3201.84C2647 3130.13 2705.13 3072 2776.84 3072L3296.16 3072C3367.87 3072 3426 3130.13 3426 3201.84L3426 3721.16C3426 3792.87 3367.87 3851 3296.16 3851L2776.84 3851C2705.13 3851 2647 3792.87 2647 3721.16Z" stroke="#000000" stroke-width="10.3125" stroke-linecap="square" stroke-linejoin="miter" stroke-miterlimit="8" stroke-dasharray="30.9375 10.3125" stroke-opacity="1" fill="#FFFFFF" fill-rule="evenodd" fill-opacity="1"/><path d="M2452 2963.5C2452 2915.73 2490.73 2877 2538.5 2877L2884.5 2877C2932.27 2877 2971 2915.73 2971 2963.5L2971 3310.5C2971 3358.27 2932.27 3397 2884.5 3397L2538.5 3397C2490.73 3397 2452 3358.27 2452 3310.5Z" stroke="#000000" stroke-width="10.3125" stroke-linecap="butt" stroke-linejoin="miter" stroke-miterlimit="8" stroke-opacity="1" fill="#FFFFFF" fill-rule="evenodd" fill-opacity="1"/><path d="M3101 2963.67C3101 2915.8 3139.8 2877 3187.67 2877L3534.33 2877C3582.2 2877 3621 2915.8 3621 2963.67L3621 3310.33C3621 3358.2 3582.2 3397 3534.33 3397L3187.67 3397C3139.8 3397 3101 3358.2 3101 3310.33Z" stroke="#000000" stroke-width="10.3125" stroke-linecap="butt" stroke-linejoin="miter" stroke-miterlimit="8" stroke-opacity="1" fill="#FFFFFF" fill-rule="evenodd" fill-opacity="1"/><path d="M2452 3613.5C2452 3565.73 2490.73 3527 2538.5 3527L2884.5 3527C2932.27 3527 2971 3565.73 2971 3613.5L2971 3959.5C2971 4007.27 2932.27 4046 2884.5 4046L2538.5 4046C2490.73 4046 2452 4007.27 2452 3959.5Z" stroke="#000000" stroke-width="10.3125" stroke-linecap="butt" stroke-linejoin="miter" stroke-miterlimit="8" stroke-opacity="1" fill="#FFFFFF" fill-rule="evenodd" fill-opacity="1"/><path d="M3101 3613.5C3101 3565.73 3139.73 3527 3187.5 3527L3534.5 3527C3582.27 3527 3621 3565.73 3621 3613.5L3621 3959.5C3621 4007.27 3582.27 4046 3534.5 4046L3187.5 4046C3139.73 4046 3101 4007.27 3101 3959.5Z" stroke="#000000" stroke-width="10.3125" stroke-linecap="butt" stroke-linejoin="miter" stroke-miterlimit="8" stroke-opacity="1" fill="#FFFFFF" fill-rule="evenodd" fill-opacity="1"/><path d="M4121 2367.67C4121 2325.88 4154.88 2292 4196.67 2292L4499.33 2292C4541.12 2292 4575 2325.88 4575 2367.67L4575 2671.33C4575 2713.12 4541.12 2747 4499.33 2747L4196.67 2747C4154.88 2747 4121 2713.12 4121 2671.33Z" stroke="#000000" stroke-width="10.3125" stroke-linecap="butt" stroke-linejoin="miter" stroke-miterlimit="8" stroke-opacity="1" fill="#FFFFFF" fill-rule="evenodd" fill-opacity="1"/><path d="M5420 2367.67C5420 2325.88 5453.88 2292 5495.67 2292L5798.33 2292C5840.12 2292 5874 2325.88 5874 2367.67L5874 2671.33C5874 2713.12 5840.12 2747 5798.33 2747L5495.67 2747C5453.88 2747 5420 2713.12 5420 2671.33Z" stroke="#000000" stroke-width="10.3125" stroke-linecap="butt" stroke-linejoin="miter" stroke-miterlimit="8" stroke-opacity="1" fill="#FFFFFF" fill-rule="evenodd" fill-opacity="1"/><path d="M5420 3667.67C5420 3625.88 5453.88 3592 5495.67 3592L5798.33 3592C5840.12 3592 5874 3625.88 5874 3667.67L5874 3970.33C5874 4012.12 5840.12 4046 5798.33 4046L5495.67 4046C5453.88 4046 5420 4012.12 5420 3970.33Z" stroke="#000000" stroke-width="10.3125" stroke-linecap="butt" stroke-linejoin="miter" stroke-miterlimit="8" stroke-opacity="1" fill="#FFFFFF" fill-rule="evenodd" fill-opacity="1"/><path d="M4121 3667.67C4121 3625.88 4154.88 3592 4196.67 3592L4499.33 3592C4541.12 3592 4575 3625.88 4575 3667.67L4575 3970.33C4575 4012.12 4541.12 4046 4499.33 4046L4196.67 4046C4154.88 4046 4121 4012.12 4121 3970.33Z" stroke="#000000" stroke-width="10.3125" stroke-linecap="butt" stroke-linejoin="miter" stroke-miterlimit="8" stroke-opacity="1" fill="#FFFFFF" fill-rule="evenodd" fill-opacity="1"/><path d="M4121 3017.67C4121 2975.88 4154.88 2942 4196.67 2942L4499.33 2942C4541.12 2942 4575 2975.88 4575 3017.67L4575 3321.33C4575 3363.12 4541.12 3397 4499.33 3397L4196.67 3397C4154.88 3397 4121 3363.12 4121 3321.33Z" stroke="#000000" stroke-width="10.3125" stroke-linecap="butt" stroke-linejoin="miter" stroke-miterlimit="8" stroke-opacity="1" fill="#FFFFFF" fill-rule="evenodd" fill-opacity="1"/><path d="M4770 2367.84C4770 2325.95 4803.95 2292 4845.83 2292L5149.17 2292C5191.05 2292 5225 2325.95 5225 2367.84L5225 2671.17C5225 2713.05 5191.05 2747 5149.17 2747L4845.83 2747C4803.95 2747 4770 2713.05 4770 2671.17Z" stroke="#000000" stroke-width="10.3125" stroke-linecap="butt" stroke-linejoin="miter" stroke-miterlimit="8" stroke-opacity="1" fill="#FFFFFF" fill-rule="evenodd" fill-opacity="1"/><path d="M4770 3667.67C4770 3625.88 4803.88 3592 4845.67 3592L5149.33 3592C5191.12 3592 5225 3625.88 5225 3667.67L5225 3970.33C5225 4012.12 5191.12 4046 5149.33 4046L4845.67 4046C4803.88 4046 4770 4012.12 4770 3970.33Z" stroke="#000000" stroke-width="10.3125" stroke-linecap="butt" stroke-linejoin="miter" stroke-miterlimit="8" stroke-opacity="1" fill="#FFFFFF" fill-rule="evenodd" fill-opacity="1"/><path d="M5420 3017.67C5420 2975.88 5453.88 2942 5495.67 2942L5798.33 2942C5840.12 2942 5874 2975.88 5874 3017.67L5874 3321.33C5874 3363.12 5840.12 3397 5798.33 3397L5495.67 3397C5453.88 3397 5420 3363.12 5420 3321.33Z" stroke="#000000" stroke-width="10.3125" stroke-linecap="butt" stroke-linejoin="miter" stroke-miterlimit="8" stroke-opacity="1" fill="#FFFFFF" fill-rule="evenodd" fill-opacity="1"/><path d="M2072.5 3592.25 2203 3592.25 2203 3527.5 2332.5 3657 2203 3786.5 2203 3721.75 2072.5 3721.75Z" stroke="#172C51" stroke-width="4.58333" stroke-linecap="butt" stroke-linejoin="miter" stroke-miterlimit="8" stroke-opacity="1" fill="none" fill-rule="evenodd"/><path d="M793.5 3721.5 923.5 3721.5 923.5 3656.5 1053.5 3786.5 923.5 3916.5 923.5 3851.5 793.5 3851.5Z" stroke="#172C51" stroke-width="4.58333" stroke-linecap="butt" stroke-linejoin="miter" stroke-miterlimit="8" stroke-opacity="1" fill="none" fill-rule="evenodd"/><path d="M3741.5 3397.5 3871.5 3397.5 3871.5 3332.5 4001.5 3462.5 3871.5 3592.5 3871.5 3527.5 3741.5 3527.5Z" stroke="#172C51" stroke-width="4.58333" stroke-linecap="butt" stroke-linejoin="miter" stroke-miterlimit="8" stroke-opacity="1" fill="none" fill-rule="evenodd"/><text fill="#000000" fill-opacity="1" font-family="Calibri,Calibri_MSFontService,sans-serif" font-style="normal" font-variant="normal" font-weight="400" font-stretch="normal" font-size="83" text-anchor="start" direction="ltr" writing-mode="lr-tb" unicode-bidi="normal" text-decoration="none" transform="matrix(1 0 0 1 231.655 4135)">Monolithic </text><text fill="#000000" fill-opacity="1" font-family="Calibri,Calibri_MSFontService,sans-serif" font-style="normal" font-variant="normal" font-weight="400" font-stretch="normal" font-size="83" text-anchor="start" direction="ltr" writing-mode="lr-tb" unicode-bidi="normal" text-decoration="none" transform="matrix(1 0 0 1 206.034 4234)">Architecture</text><text fill="#202124" fill-opacity="1" font-family="Calibri,Calibri_MSFontService,sans-serif" font-style="normal" font-variant="normal" font-weight="400" font-stretch="normal" font-size="83" text-anchor="start" direction="ltr" writing-mode="lr-tb" unicode-bidi="normal" text-decoration="none" transform="matrix(1 0 0 1 1252.87 4135)">Component</text><text fill="#202124" fill-opacity="1" font-family="Calibri,Calibri_MSFontService,sans-serif" font-style="normal" font-variant="normal" font-weight="400" font-stretch="normal" font-size="83" text-anchor="start" direction="ltr" writing-mode="lr-tb" unicode-bidi="normal" text-decoration="none" transform="matrix(1 0 0 1 1646.03 4135)">-</text><text fill="#202124" fill-opacity="1" font-family="Calibri,Calibri_MSFontService,sans-serif" font-style="normal" font-variant="normal" font-weight="400" font-stretch="normal" font-size="83" text-anchor="start" direction="ltr" writing-mode="lr-tb" unicode-bidi="normal" text-decoration="none" transform="matrix(1 0 0 1 1671.23 4135)">Based </text><text fill="#202124" fill-opacity="1" font-family="Calibri,Calibri_MSFontService,sans-serif" font-style="normal" font-variant="normal" font-weight="400" font-stretch="normal" font-size="83" text-anchor="start" direction="ltr" writing-mode="lr-tb" unicode-bidi="normal" text-decoration="none" transform="matrix(1 0 0 1 1355.08 4234)">Architecture</text><text fill="#000000" fill-opacity="1" font-family="Calibri,Calibri_MSFontService,sans-serif" font-style="normal" font-variant="normal" font-weight="400" font-stretch="normal" font-size="83" text-anchor="start" direction="ltr" writing-mode="lr-tb" unicode-bidi="normal" text-decoration="none" transform="matrix(1 0 0 1 2689.77 4135)">S</text><text fill="#000000" fill-opacity="1" font-family="Calibri,Calibri_MSFontService,sans-serif" font-style="normal" font-variant="normal" font-weight="400" font-stretch="normal" font-size="83" text-anchor="start" direction="ltr" writing-mode="lr-tb" unicode-bidi="normal" text-decoration="none" transform="matrix(1 0 0 1 2727.58 4135)">ervice</text><text fill="#000000" fill-opacity="1" font-family="Calibri,Calibri_MSFontService,sans-serif" font-style="normal" font-variant="normal" font-weight="400" font-stretch="normal" font-size="83" text-anchor="start" direction="ltr" writing-mode="lr-tb" unicode-bidi="normal" text-decoration="none" transform="matrix(1 0 0 1 2930.57 4135)">-</text><text fill="#000000" fill-opacity="1" font-family="Calibri,Calibri_MSFontService,sans-serif" font-style="normal" font-variant="normal" font-weight="400" font-stretch="normal" font-size="83" text-anchor="start" direction="ltr" writing-mode="lr-tb" unicode-bidi="normal" text-decoration="none" transform="matrix(1 0 0 1 2955.78 4135)">O</text><text fill="#000000" fill-opacity="1" font-family="Calibri,Calibri_MSFontService,sans-serif" font-style="normal" font-variant="normal" font-weight="400" font-stretch="normal" font-size="83" text-anchor="start" direction="ltr" writing-mode="lr-tb" unicode-bidi="normal" text-decoration="none" transform="matrix(1 0 0 1 3010.21 4135)">riented </text><text fill="#000000" fill-opacity="1" font-family="Calibri,Calibri_MSFontService,sans-serif" font-style="normal" font-variant="normal" font-weight="400" font-stretch="normal" font-size="83" text-anchor="start" direction="ltr" writing-mode="lr-tb" unicode-bidi="normal" text-decoration="none" transform="matrix(1 0 0 1 2763.97 4234)">A</text><text fill="#000000" fill-opacity="1" font-family="Calibri,Calibri_MSFontService,sans-serif" font-style="normal" font-variant="normal" font-weight="400" font-stretch="normal" font-size="83" text-anchor="start" direction="ltr" writing-mode="lr-tb" unicode-bidi="normal" text-decoration="none" transform="matrix(1 0 0 1 2811.52 4234)">rchitecture</text><text fill="#000000" fill-opacity="1" font-family="Calibri,Calibri_MSFontService,sans-serif" font-style="normal" font-variant="normal" font-weight="400" font-stretch="normal" font-size="83" text-anchor="start" direction="ltr" writing-mode="lr-tb" unicode-bidi="normal" text-decoration="none" transform="matrix(1 0 0 1 4766.32 4135)">M</text><text fill="#000000" fill-opacity="1" font-family="Calibri,Calibri_MSFontService,sans-serif" font-style="normal" font-variant="normal" font-weight="400" font-stretch="normal" font-size="83" text-anchor="start" direction="ltr" writing-mode="lr-tb" unicode-bidi="normal" text-decoration="none" transform="matrix(1 0 0 1 4836.79 4135)">icroservices </text><text fill="#000000" fill-opacity="1" font-family="Calibri,Calibri_MSFontService,sans-serif" font-style="normal" font-variant="normal" font-weight="400" font-stretch="normal" font-size="83" text-anchor="start" direction="ltr" writing-mode="lr-tb" unicode-bidi="normal" text-decoration="none" transform="matrix(1 0 0 1 4789.97 4234)">A</text><text fill="#000000" fill-opacity="1" font-family="Calibri,Calibri_MSFontService,sans-serif" font-style="normal" font-variant="normal" font-weight="400" font-stretch="normal" font-size="83" text-anchor="start" direction="ltr" writing-mode="lr-tb" unicode-bidi="normal" text-decoration="none" transform="matrix(1 0 0 1 4837.52 4234)">rchitecture</text></g></g></svg>