<?xml version="1.0" standalone="no"?>
<!DOCTYPE svg PUBLIC "-//W3C//DTD SVG 20010904//EN"
 "http://www.w3.org/TR/2001/REC-SVG-20010904/DTD/svg10.dtd">
<svg version="1.0" xmlns="http://www.w3.org/2000/svg"
 width="450.000000pt" height="450.000000pt" viewBox="0 0 450.000000 450.000000"
 preserveAspectRatio="xMidYMid meet">
<metadata>
Created by potrace 1.14, written by Peter Selinger 2001-2017
</metadata>
<g transform="translate(0.000000,450.000000) scale(0.100000,-0.100000)"
fill="#000000" stroke="none">
<path d="M200 4329 c0 -5 6 -9 14 -9 8 0 17 -6 19 -12 4 -8 6 -7 6 3 1 9 -8
19 -19 22 -11 3 -20 1 -20 -4z"/>
<path d="M3861 4279 c-30 -16 -60 -29 -68 -29 -8 0 -27 -10 -43 -21 -18 -14
-37 -20 -50 -16 -15 4 -37 -5 -72 -29 -27 -19 -57 -34 -66 -32 -21 3 -122 -82
-135 -115 -3 -9 -13 -17 -21 -17 -7 0 -21 -11 -30 -25 -9 -14 -25 -25 -36 -25
-14 0 -20 -7 -20 -23 0 -28 -36 -75 -42 -56 -3 9 -9 9 -24 1 -17 -10 -17 -11
-2 -12 13 0 6 -12 -27 -46 -25 -25 -45 -52 -45 -60 0 -8 -6 -14 -14 -14 -8 0
-17 -7 -20 -16 -3 -8 -10 -12 -16 -9 -5 3 -10 -1 -10 -10 0 -12 -6 -15 -20
-10 -20 6 -28 -9 -11 -19 28 -18 -54 -154 -129 -213 -88 -70 -92 -72 -150 -78
-30 -3 -71 -9 -90 -13 -33 -7 -35 -10 -35 -47 -1 -22 -6 -49 -12 -60 -6 -11
-21 -41 -32 -67 -12 -27 -26 -48 -33 -48 -20 0 20 -36 42 -37 11 -1 35 -9 52
-17 17 -9 36 -16 41 -16 6 0 19 -7 28 -16 16 -14 23 -15 48 -4 30 12 48 11 44
-2 -2 -4 4 -5 11 -2 8 3 23 1 34 -5 15 -8 24 -5 42 14 24 25 40 32 40 17 0 -5
-9 -18 -20 -30 -25 -26 -25 -33 -3 -25 19 8 83 68 83 79 0 4 11 22 25 40 33
43 32 49 -5 27 -16 -9 -30 -21 -30 -25 0 -4 -5 -8 -10 -8 -6 0 15 25 45 55 31
31 53 60 50 65 -3 5 -22 2 -41 -6 -20 -8 -38 -13 -41 -10 -3 3 21 30 53 60 50
47 56 56 37 56 -28 0 -29 17 -3 50 11 14 20 35 20 48 0 24 44 57 92 67 15 4
31 11 34 17 4 6 -1 8 -15 3 -32 -10 -26 14 7 26 16 7 22 13 14 16 -7 3 -23 -2
-35 -11 -12 -9 -38 -27 -57 -40 -35 -23 -108 -92 -164 -155 -37 -42 -95 -85
-103 -78 -4 5 78 129 158 237 10 14 32 50 47 80 53 103 141 214 300 378 28 30
52 58 52 62 0 4 30 22 68 40 37 17 75 36 85 41 9 5 44 12 78 16 83 8 167 -19
171 -56 2 -14 9 -27 16 -27 6 -1 20 -2 29 -3 9 0 14 -4 10 -7 -3 -4 1 -20 9
-36 21 -40 28 -30 10 14 -9 20 -13 38 -10 41 3 3 -4 16 -15 29 -13 13 -17 24
-11 26 7 3 5 10 -5 22 -13 15 -14 24 -4 63 6 25 9 50 8 55 -2 6 -28 -3 -58
-19z"/>
<path d="M55 4150 c-3 -5 -1 -10 4 -10 6 0 11 5 11 10 0 6 -2 10 -4 10 -3 0
-8 -4 -11 -10z"/>
<path d="M271 4113 c-7 -14 -7 -31 -1 -45 5 -13 9 -17 9 -10 1 6 5 12 9 12 5
0 7 -13 4 -30 -3 -19 0 -30 7 -30 8 0 11 -14 9 -37 -2 -28 -9 -41 -25 -48 -13
-5 -23 -18 -23 -28 0 -10 5 -15 10 -12 6 3 10 2 10 -3 0 -6 -6 -12 -12 -15
-14 -5 -16 -70 -3 -99 4 -10 3 -18 -3 -18 -5 0 -12 -7 -16 -15 -3 -8 -2 -14 2
-14 4 1 17 -2 29 -6 19 -6 22 -12 16 -34 -4 -14 -7 -41 -6 -59 1 -28 -1 -32
-18 -27 -13 4 -19 2 -19 -9 0 -9 5 -15 11 -14 25 6 18 -21 -11 -42 -25 -18
-30 -19 -30 -6 0 17 -15 22 -24 8 -6 -10 15 -37 37 -45 10 -4 15 -12 12 -17
-4 -6 -12 -9 -18 -7 -7 2 -20 -2 -29 -10 -20 -18 -39 -9 -32 15 4 12 3 13 -3
4 -5 -7 -19 -11 -31 -9 -29 4 -40 17 -16 17 30 1 56 24 42 38 -15 15 -38 16
-38 2 0 -7 -6 -7 -19 -1 -13 8 -18 19 -15 46 3 40 -10 54 -26 28 -10 -16 -11
-15 -6 6 6 29 -14 77 -25 59 -4 -6 -3 -20 2 -30 5 -10 7 -19 4 -19 -3 -1 -9
-2 -14 -3 -19 -2 -23 -16 -8 -22 15 -5 15 -8 -1 -32 -9 -14 -11 -23 -4 -19 6
5 12 4 12 -2 0 -6 -4 -11 -9 -11 -13 0 -10 -153 3 -162 7 -5 7 -8 -1 -8 -7 0
-13 -4 -13 -9 0 -5 9 -7 20 -4 16 4 19 2 14 -11 -4 -10 -1 -16 9 -16 16 0 30
26 22 41 -4 5 0 6 8 3 10 -4 13 3 9 26 -5 37 -10 38 -22 5 -8 -22 -13 -24 -30
-15 -11 6 -20 17 -20 25 0 18 12 19 28 3 9 -9 12 -6 12 16 0 21 4 27 15 22 8
-3 15 -1 15 3 0 5 -6 11 -12 14 -7 2 -10 8 -6 12 11 12 38 -14 31 -31 -3 -8 1
-14 11 -14 9 0 16 -7 16 -15 0 -8 -7 -15 -15 -15 -17 0 -20 -26 -5 -35 6 -4
31 3 55 14 49 23 70 27 60 11 -3 -5 1 -10 11 -10 12 0 14 4 7 13 -6 6 -12 22
-15 34 -6 23 12 33 61 33 18 0 22 4 18 20 -3 13 0 20 9 20 8 0 14 -9 14 -21 0
-15 5 -19 15 -15 11 4 15 -1 14 -17 0 -12 -3 -16 -6 -9 -10 24 -25 12 -18 -15
5 -23 4 -25 -9 -14 -9 8 -16 20 -16 27 0 18 -46 19 -56 2 -4 -7 -4 -10 0 -6 4
3 16 -1 26 -10 18 -15 18 -16 2 -28 -9 -8 -13 -14 -8 -14 5 0 1 -9 -10 -21
-19 -21 -19 -21 0 -18 10 2 21 -2 24 -10 3 -10 -3 -11 -29 -6 -45 10 -54 16
-38 26 7 4 10 11 6 16 -4 4 -17 2 -27 -5 -16 -10 -20 -10 -20 0 -1 8 -6 6 -14
-4 -8 -11 -26 -18 -44 -18 -29 0 -46 -13 -47 -34 0 -5 -6 -11 -14 -14 -8 -3
-11 0 -8 5 4 6 -4 15 -18 21 l-24 11 1 -1172 c0 -645 2 -1163 5 -1152 3 11 10
23 16 27 6 3 11 28 13 55 2 48 15 112 29 146 5 13 2 17 -14 17 -12 0 -21 4
-21 8 0 8 8 17 56 60 18 16 21 28 17 65 -4 36 -1 52 16 75 11 17 21 37 21 45
0 8 7 20 15 27 8 7 12 17 8 23 -3 6 -1 7 6 3 6 -4 13 -1 15 6 2 7 17 54 32
103 31 99 37 158 23 224 -7 30 -6 48 1 55 15 15 12 26 -6 26 -12 0 -15 6 -10
23 4 12 8 33 10 45 2 13 10 31 19 39 10 10 13 27 10 54 -4 25 -2 39 6 39 6 0
11 6 11 13 0 7 6 25 13 40 9 20 19 27 40 27 16 0 26 4 22 10 -3 6 3 10 14 10
21 0 44 28 56 68 5 16 2 22 -9 22 -9 0 -15 3 -15 8 3 18 -2 32 -12 32 -6 0 -9
-7 -5 -15 3 -8 1 -15 -4 -15 -6 0 -10 5 -10 10 0 6 -7 10 -16 10 -13 0 -15 6
-9 27 3 15 10 30 13 33 13 9 8 83 -6 88 -8 2 -12 -2 -10 -11 2 -9 -1 -16 -7
-16 -5 -1 -10 14 -9 32 1 28 4 32 25 30 14 -1 17 0 7 3 -10 3 -18 12 -18 20 0
11 9 15 30 12 25 -2 33 2 45 25 14 27 10 32 -23 28 -18 -3 -43 61 -30 76 6 7
14 11 18 8 7 -4 19 26 20 48 0 15 -19 6 -23 -10 -2 -10 -3 -6 -1 9 2 18 -3 32
-16 41 -18 12 -18 15 -5 35 14 19 13 21 -5 27 -11 4 -20 15 -20 26 0 12 4 17
11 13 6 -3 14 -3 18 2 7 11 80 49 95 50 6 0 19 -4 29 -8 9 -5 22 -6 27 -3 14
9 -12 45 -32 45 -10 0 -18 5 -18 11 0 6 -7 8 -16 5 -9 -4 -22 -1 -30 5 -14 11
-54 -4 -54 -20 0 -5 -11 -11 -25 -13 -14 -3 -25 -1 -25 3 0 5 9 9 21 9 15 0
19 4 15 16 -3 9 -6 18 -6 20 0 2 -13 4 -30 4 -16 0 -30 -5 -30 -12 0 -6 -2 -9
-5 -7 -9 10 8 49 22 49 9 0 13 6 9 15 -3 8 -1 15 4 15 6 0 10 -7 10 -15 0 -8
5 -15 10 -15 13 0 13 6 0 29 -8 17 -4 18 45 17 37 -1 55 -5 55 -13 0 -7 7 -13
16 -13 11 0 14 5 10 16 -4 9 -13 50 -22 91 -20 100 -30 124 -54 130 -11 3 -20
13 -20 22 0 14 2 14 10 1 9 -13 11 -13 20 0 6 8 7 26 4 40 -3 14 -10 50 -14
80 -5 30 -11 62 -14 70 -11 31 -28 208 -26 275 2 68 3 71 45 114 38 38 50 44
95 49 69 6 149 -13 240 -60 41 -21 79 -38 84 -38 11 0 208 -198 258 -260 20
-25 109 -119 197 -208 156 -159 188 -202 139 -186 -13 4 -34 15 -47 25 -22 18
-51 25 -51 14 0 -3 13 -23 29 -45 17 -24 27 -48 24 -59 -3 -10 0 -22 6 -25 6
-4 11 -2 11 3 0 6 7 11 15 11 18 0 20 -26 3 -34 -15 -5 59 -76 80 -76 6 0 12
-4 12 -10 0 -5 14 -10 30 -10 17 0 30 4 30 8 0 4 29 20 64 36 l63 28 -1 107
c0 59 -5 111 -11 117 -6 6 -24 9 -41 7 -24 -4 -40 3 -76 34 -26 21 -67 44 -92
52 -26 7 -46 17 -46 21 0 4 -20 17 -45 30 -25 13 -45 29 -45 36 0 8 -6 11 -15
8 -8 -4 -15 -1 -15 5 0 6 -7 11 -15 11 -8 0 -15 7 -15 16 0 8 -4 13 -10 9 -10
-6 -50 29 -50 44 0 5 -13 14 -30 21 -16 7 -27 16 -24 21 3 5 -2 9 -10 9 -16 0
-31 34 -21 50 3 5 1 10 -4 10 -6 0 -11 -7 -11 -16 0 -13 -4 -12 -28 4 -42 30
-82 73 -77 82 3 5 -8 14 -23 21 -16 7 -33 22 -38 33 -5 12 -18 23 -29 25 -11
2 -29 13 -41 25 -43 45 -94 86 -94 76 0 -5 -5 -10 -11 -10 -5 0 -7 5 -4 10 6
9 -8 14 -28 11 -5 -1 -20 8 -34 19 -14 11 -30 17 -35 14 -5 -3 -17 1 -26 9 -9
8 -42 18 -72 22 -68 9 -156 37 -181 59 -11 9 -23 16 -28 16 -5 0 -11 5 -13 12
-7 21 -46 16 -57 -9z m-214 -575 c-3 -8 -6 -5 -6 6 -1 11 2 17 5 13 3 -3 4
-12 1 -19z m292 -21 c0 -9 -2 -8 -6 1 -2 6 -10 9 -15 6 -7 -4 -8 -2 -4 5 9 13
26 5 25 -12z m-297 -29 c-7 -7 -12 -8 -12 -2 0 14 12 26 19 19 2 -3 -1 -11 -7
-17z m-12 -60 c0 -5 -4 -8 -10 -8 -5 0 -10 10 -10 23 0 18 2 19 10 7 5 -8 10
-18 10 -22z m150 -17 c0 -5 -13 -14 -29 -19 -26 -9 -28 -8 -24 9 5 19 53 28
53 10z m157 -23 c-3 -8 -6 -5 -6 6 -1 11 2 17 5 13 3 -3 4 -12 1 -19z m-162
-78 c3 -5 1 -10 -4 -10 -6 0 -11 5 -11 10 0 6 2 10 4 10 3 0 8 -4 11 -10z
m135 4 c0 -12 -54 -63 -62 -58 -4 3 -8 1 -8 -4 0 -5 10 -12 22 -15 22 -6 22
-6 3 -27 l-20 -22 -8 31 c-4 17 -14 31 -22 31 -13 0 -13 3 -3 20 7 11 19 18
25 15 7 -2 13 -1 13 4 0 4 10 13 23 19 26 12 37 14 37 6z m-120 -39 c-7 -8
-23 -15 -36 -15 -12 0 -25 -4 -28 -9 -7 -11 22 -23 35 -15 5 3 9 -1 9 -9 0 -9
-9 -12 -30 -9 -25 4 -30 9 -30 33 0 25 4 29 28 29 15 0 34 4 42 10 20 12 26 4
10 -15z m-160 -65 c-8 -5 -19 -10 -25 -10 -5 0 -3 5 5 10 8 5 20 10 25 10 6 0
3 -5 -5 -10z m180 0 c0 -5 -8 -10 -17 -10 -15 0 -16 2 -3 10 19 12 20 12 20 0z
m-42 -40 c-1 -17 -4 -33 -8 -35 -4 -2 -5 6 -4 18 1 12 3 28 3 35 2 26 10 10 9
-18z m35 -21 c-4 -15 -8 -17 -14 -8 -8 14 -3 29 11 29 4 0 6 -9 3 -21z m182
11 c3 -6 -1 -13 -10 -16 -19 -8 -30 0 -20 15 8 14 22 14 30 1z m-321 -44 c-7
-18 -46 -28 -58 -16 -7 7 -1 10 16 10 15 0 30 5 33 10 9 15 15 12 9 -4z m182
-92 c-3 -8 -10 -12 -16 -9 -7 4 -6 14 2 28 12 24 24 8 14 -19z m-36 -11 c0 -7
-7 -13 -15 -13 -8 0 -15 -5 -15 -11 0 -5 -4 -7 -10 -4 -5 3 -10 14 -10 25 0
13 7 17 25 16 14 0 25 -7 25 -13z m-121 -34 c-15 -28 -23 -29 -35 -4 -11 22
-9 24 17 23 24 -1 27 -4 18 -19z m201 11 c0 -5 -2 -10 -4 -10 -3 0 -8 5 -11
10 -3 6 -1 10 4 10 6 0 11 -4 11 -10z m-40 -11 c12 -9 12 -10 -4 -5 -10 4 -25
1 -32 -5 -11 -9 -14 -8 -14 5 0 18 28 21 50 5z m82 -24 c0 -5 -5 -11 -11 -13
-6 -2 -11 4 -11 13 0 9 5 15 11 13 6 -2 11 -8 11 -13z m-172 -29 c0 -3 -4 -8
-10 -11 -5 -3 -10 -1 -10 4 0 6 5 11 10 11 6 0 10 -2 10 -4z m80 -140 c0 -3
-4 -8 -10 -11 -5 -3 -10 -1 -10 4 0 6 5 11 10 11 6 0 10 -2 10 -4z m10 -32 c0
-10 -31 -36 -37 -31 -10 10 6 37 22 37 8 0 15 -3 15 -6z m83 -29 c-3 -9 -8
-14 -10 -11 -3 3 -2 9 2 15 9 16 15 13 8 -4z m-193 -9 c0 -3 -4 -8 -10 -11 -5
-3 -10 -1 -10 4 0 6 5 11 10 11 6 0 10 -2 10 -4z m180 -346 c0 -5 -5 -10 -11
-10 -5 0 -7 5 -4 10 3 6 8 10 11 10 2 0 4 -4 4 -10z m50 -40 c0 -11 -48 -25
-56 -17 -4 3 -3 10 1 16 8 14 55 14 55 1z"/>
<path d="M3685 4120 c-22 -11 -53 -34 -70 -50 -16 -16 -55 -53 -85 -81 -30
-29 -44 -44 -30 -33 14 11 40 28 59 38 19 10 52 36 74 57 22 22 47 39 56 39 9
0 22 5 28 11 8 8 17 8 31 0 26 -14 45 -14 37 -1 -3 6 -15 10 -25 10 -13 0 -17
5 -14 15 8 21 -14 19 -61 -5z"/>
<path d="M50 4004 c0 -8 5 -12 10 -9 6 4 8 11 5 16 -9 14 -15 11 -15 -7z"/>
<path d="M3840 3995 c-7 -8 -10 -28 -8 -44 3 -21 1 -28 -9 -24 -16 6 -18 -13
-2 -22 6 -4 8 -13 5 -20 -2 -7 1 -21 9 -31 11 -15 10 -22 -2 -41 -8 -13 -19
-20 -24 -17 -5 3 -9 0 -9 -7 0 -8 17 -10 60 -5 46 5 60 4 60 -6 0 -24 -186
-180 -231 -193 -13 -3 -46 -17 -74 -30 -27 -13 -66 -28 -85 -34 -34 -10 -34
-10 10 -5 54 6 100 23 100 36 0 6 6 8 14 5 7 -3 26 1 41 9 25 13 27 12 32 -6
3 -11 12 -20 20 -20 20 0 46 -27 33 -35 -5 -3 -10 -4 -10 -1 0 3 -15 -1 -34
-9 -26 -11 -35 -12 -39 -2 -3 9 -9 9 -30 0 -19 -9 -27 -9 -30 0 -2 8 -14 8
-45 -1 -51 -15 -57 -36 -8 -27 41 8 87 -11 65 -27 -9 -6 4 -7 41 -3 30 3 59
10 65 16 13 13 41 11 54 -5 10 -11 4 -17 -31 -29 -24 -8 -42 -19 -41 -25 3
-10 -55 -32 -84 -32 -7 0 -13 -5 -13 -10 0 -13 49 -5 141 22 61 18 67 22 72
51 4 18 9 43 13 57 6 21 4 23 -7 13 -7 -7 -19 -13 -27 -13 -8 0 3 18 24 40 21
22 43 40 50 40 16 0 29 -53 15 -58 -6 -2 -11 -10 -11 -18 0 -8 6 -11 16 -7 12
5 15 0 13 -23 -1 -16 1 -39 5 -51 18 -54 -34 -93 -93 -70 -23 8 -51 8 -115 -1
-47 -7 -103 -10 -124 -6 -27 4 -42 2 -47 -6 -5 -8 -4 -11 3 -6 6 3 16 -3 22
-15 10 -18 17 -20 55 -15 24 4 46 3 49 -2 6 -10 -39 -22 -80 -22 -13 0 -24 -4
-24 -10 0 -11 51 -13 99 -4 17 4 28 10 26 15 -3 4 10 5 30 2 21 -3 41 -1 49 6
8 7 40 15 70 18 44 5 56 3 56 -8 0 -20 -12 -34 -35 -43 -20 -7 -20 -8 -1 -22
19 -14 19 -14 -2 -14 -12 0 -22 -5 -22 -11 0 -8 12 -10 35 -6 42 7 45 1 8 -15
l-28 -12 29 -4 c16 -2 33 1 38 6 12 12 0 40 -20 45 -12 3 -11 5 5 6 30 1 53
27 53 59 0 15 7 37 15 50 12 16 13 27 6 41 -6 10 -8 20 -6 23 9 8 17 104 17
196 1 51 5 95 10 98 4 3 6 10 2 15 -4 6 -10 6 -19 -1 -9 -8 -14 -5 -20 12 -4
13 -6 33 -5 45 1 16 -6 24 -25 29 -19 5 -23 10 -16 17 18 18 13 48 -9 54 -20
5 -28 23 -10 23 16 0 12 37 -5 44 -8 3 -15 17 -15 31 0 55 -33 82 -60 50z m40
-165 c0 -5 -4 -10 -10 -10 -5 0 -10 5 -10 10 0 6 5 10 10 10 6 0 10 -4 10 -10z
m-37 -227 c-7 -2 -19 -2 -25 0 -7 3 -2 5 12 5 14 0 19 -2 13 -5z"/>
<path d="M30 3960 c0 -5 4 -10 9 -10 6 0 13 5 16 10 3 6 -1 10 -9 10 -9 0 -16
-4 -16 -10z"/>
<path d="M156 3925 c-16 -12 -17 -15 -4 -15 9 0 18 7 22 15 7 18 6 18 -18 0z"/>
<path d="M0 3917 c0 -9 4 -17 9 -17 5 0 16 -3 25 -6 12 -4 16 0 16 16 0 18 -3
20 -13 11 -10 -8 -17 -7 -25 1 -9 9 -12 8 -12 -5z"/>
<path d="M66 3881 c-4 -7 -5 -15 -2 -18 9 -9 19 4 14 18 -4 11 -6 11 -12 0z"/>
<path d="M220 3870 c-6 -11 -8 -25 -5 -30 9 -15 27 -1 21 16 -3 8 -1 14 4 14
6 0 10 5 10 10 0 17 -19 11 -30 -10z"/>
<path d="M53 3833 c-18 -6 -16 -33 1 -33 19 0 31 19 20 30 -5 4 -15 5 -21 3z"/>
<path d="M90 3836 c0 -2 8 -10 18 -17 15 -13 16 -12 3 4 -13 16 -21 21 -21 13z"/>
<path d="M171 3814 c0 -11 3 -14 6 -6 3 7 2 16 -1 19 -3 4 -6 -2 -5 -13z"/>
<path d="M215 3811 c-6 -11 9 -23 19 -14 9 9 7 23 -3 23 -6 0 -12 -4 -16 -9z"/>
<path d="M96 3795 c4 -8 11 -15 16 -15 6 0 5 6 -2 15 -7 8 -14 15 -16 15 -2 0
-1 -7 2 -15z"/>
<path d="M25 3781 c-3 -6 -11 -9 -16 -6 -16 11 -9 -29 10 -52 18 -21 20 -22
50 -7 32 16 44 42 14 29 -10 -4 -26 -10 -36 -13 -17 -4 -18 -3 -6 16 10 16 11
24 2 33 -8 8 -13 8 -18 0z"/>
<path d="M75 3781 c-3 -5 -1 -12 5 -16 5 -3 10 1 10 9 0 18 -6 21 -15 7z"/>
<path d="M435 3770 c3 -5 8 -10 11 -10 2 0 4 5 4 10 0 6 -5 10 -11 10 -5 0 -7
-4 -4 -10z"/>
<path d="M3286 3725 c-27 -25 -47 -47 -45 -49 2 -2 28 18 58 45 30 27 51 49
45 49 -5 0 -31 -21 -58 -45z"/>
<path d="M170 3750 c0 -5 7 -10 15 -10 8 0 15 5 15 10 0 6 -7 10 -15 10 -8 0
-15 -4 -15 -10z"/>
<path d="M420 3722 c0 -10 6 -26 13 -35 11 -14 14 -15 32 -1 20 15 20 15 -5
34 -31 24 -40 25 -40 2z"/>
<path d="M3800 3725 c-7 -8 -8 -15 -2 -15 5 0 15 7 22 15 7 8 8 15 2 15 -5 0
-15 -7 -22 -15z"/>
<path d="M160 3720 c0 -5 5 -10 11 -10 5 0 7 5 4 10 -3 6 -8 10 -11 10 -2 0
-4 -4 -4 -10z"/>
<path d="M0 3680 c0 -19 3 -21 12 -12 9 9 9 15 0 24 -9 9 -12 7 -12 -12z"/>
<path d="M60 3691 c-21 -6 -22 -8 -7 -14 9 -3 17 -16 17 -27 0 -11 5 -20 10
-20 6 0 10 15 10 33 0 21 3 28 9 19 7 -11 9 -11 14 2 7 17 -9 19 -53 7z"/>
<path d="M212 3689 c12 -8 4 -13 -14 -10 -5 0 -8 -3 -8 -9 0 -14 47 -12 54 3
3 6 3 -5 -1 -27 -4 -30 -3 -38 8 -34 18 6 31 59 18 74 -6 7 -24 12 -40 12 -20
-1 -26 -4 -17 -9z"/>
<path d="M132 3650 c0 -14 2 -19 5 -12 2 6 2 18 0 25 -3 6 -5 1 -5 -13z"/>
<path d="M436 3652 c-2 -4 -2 -27 1 -50 6 -45 25 -55 42 -23 20 36 -22 107
-43 73z"/>
<path d="M3210 3645 c-7 -9 -10 -18 -7 -22 8 -7 37 15 37 28 0 14 -16 11 -30
-6z"/>
<path d="M100 3555 c0 -8 7 -15 15 -15 8 0 15 7 15 15 0 8 -7 15 -15 15 -8 0
-15 -7 -15 -15z"/>
<path d="M447 3536 c-12 -30 15 -42 86 -38 66 4 94 18 38 20 -17 0 -39 6 -51
12 -12 6 -28 9 -36 6 -8 -3 -14 -1 -14 4 0 15 -17 12 -23 -4z"/>
<path d="M482 3362 c-1 -18 5 -36 18 -47 20 -18 20 -18 14 16 -9 49 -29 68
-32 31z"/>
<path d="M1781 3247 c-19 -19 -12 -28 22 -25 17 2 31 7 30 13 -3 15 -40 24
-52 12z"/>
<path d="M3634 3159 c-30 -8 -51 -35 -39 -47 3 -3 5 -1 5 4 0 5 21 9 48 9 26
0 62 6 81 15 l34 15 -29 6 c-41 9 -64 9 -100 -2z"/>
<path d="M3140 3145 c0 -19 9 -19 34 0 19 14 19 15 -7 15 -17 0 -27 -5 -27
-15z"/>
<path d="M3820 3111 c-19 -11 -106 -23 -147 -22 -45 2 -42 -15 4 -24 36 -6 37
-8 18 -21 -11 -8 -25 -12 -33 -9 -7 2 -29 -4 -49 -15 -48 -26 -24 -35 48 -20
30 7 81 13 114 14 33 1 81 6 108 11 53 9 62 -4 25 -36 -16 -12 -19 -21 -12
-26 31 -22 9 -73 -31 -73 -25 0 -135 -85 -135 -104 0 -8 -5 -16 -10 -18 -6 -2
-12 -14 -13 -28 -1 -14 -12 -36 -24 -50 -39 -42 -5 -34 50 12 29 24 76 61 105
82 28 21 52 42 52 47 0 5 8 9 17 9 16 0 16 1 0 13 -14 10 -14 15 -3 30 8 10
20 15 30 11 18 -7 22 -24 6 -24 -5 0 -10 -4 -10 -10 0 -5 6 -10 13 -10 30 0
60 -61 37 -75 -5 -3 -10 -2 -10 4 0 22 -37 31 -69 18 -45 -19 -225 -197 -212
-210 7 -7 15 -6 26 3 13 10 15 9 15 -8 0 -17 41 -44 75 -48 6 0 13 -2 17 -2 4
-1 3 -13 -2 -27 -9 -24 -8 -25 34 -25 34 0 53 -8 92 -37 27 -21 54 -43 59 -49
6 -7 33 -26 60 -43 28 -17 44 -31 38 -31 -27 0 -11 -17 27 -30 22 -7 40 -16
40 -20 0 -4 20 -28 44 -53 24 -25 41 -49 38 -52 -3 -3 0 -5 6 -5 7 0 12 -5 12
-11 0 -17 72 -84 86 -81 7 1 15 -6 19 -17 3 -10 15 -21 25 -24 15 -4 20 0 21
16 2 37 -3 62 -12 65 -5 2 -9 14 -9 27 0 13 -4 27 -10 30 -5 3 -10 17 -10 30
0 13 -8 30 -17 37 -10 7 -19 27 -21 43 -2 17 -11 35 -19 40 -9 6 -29 22 -45
36 -23 21 -25 28 -13 33 18 6 20 43 3 48 -7 3 -13 26 -14 53 -2 40 -6 50 -24
57 -18 7 -20 11 -10 23 9 11 7 16 -9 27 -12 7 -21 21 -21 30 0 10 -11 25 -25
34 -14 9 -25 21 -25 27 0 6 -10 21 -22 34 -18 19 -20 27 -11 42 7 11 8 23 1
34 -5 10 -6 26 -3 37 4 11 3 20 -2 20 -13 0 -32 49 -22 56 15 9 10 20 -16 34
-15 8 -25 22 -25 35 0 12 -9 32 -20 45 -16 18 -17 25 -8 32 7 4 9 8 4 8 -6 0
-2 6 9 13 29 22 11 37 -30 26 -27 -8 -40 -7 -57 6 -24 16 -93 20 -118 6z m-35
-511 c-3 -5 -10 -10 -16 -10 -5 0 -9 5 -9 10 0 6 7 10 16 10 8 0 12 -4 9 -10z"/>
<path d="M2017 3104 c-4 -4 -7 -14 -7 -23 0 -11 3 -12 11 -4 6 6 10 16 7 23
-2 6 -7 8 -11 4z"/>
<path d="M1850 3080 c-8 -5 -11 -10 -6 -10 4 0 -1 -8 -12 -17 -32 -28 -72 -93
-72 -119 0 -12 -4 -25 -9 -29 -6 -3 -22 -31 -37 -63 -15 -31 -35 -68 -45 -81
-10 -13 -16 -27 -13 -32 3 -5 0 -9 -7 -9 -7 0 -9 -8 -6 -21 4 -15 2 -19 -9
-15 -8 3 -14 -1 -14 -9 0 -8 -6 -18 -14 -22 -29 -17 -68 -75 -71 -106 -2 -17
-8 -45 -14 -60 -16 -41 3 -152 35 -200 40 -60 124 -89 124 -42 0 14 -4 25 -8
25 -17 0 -33 50 -22 70 5 10 10 47 10 82 1 39 6 70 15 82 8 11 15 31 15 44 0
13 12 38 26 55 19 22 24 37 19 56 -7 29 -34 54 -51 47 -7 -3 -10 3 -7 14 6 22
28 29 70 23 37 -6 41 -14 108 -192 8 -21 10 -63 7 -115 -5 -89 7 -114 48 -103
33 8 40 -13 22 -68 -16 -47 -19 -50 -52 -51 -37 0 -37 1 -26 -65 5 -28 14 -39
40 -51 18 -9 38 -13 46 -8 15 9 5 30 -16 30 -17 0 -18 29 -1 51 19 25 42 29
55 9 9 -14 7 -21 -9 -36 -22 -20 -25 -34 -5 -34 13 0 28 22 30 45 1 8 45 9 54
0 1 -1 -3 -14 -9 -28 -18 -40 -6 -59 35 -52 20 4 36 2 40 -4 4 -6 0 -11 -11
-12 -10 0 -32 -21 -50 -50 -28 -44 -30 -49 -12 -49 20 0 26 -15 9 -25 -5 -3
-10 -17 -10 -30 0 -13 -4 -27 -10 -30 -5 -3 -10 -16 -10 -27 0 -19 2 -20 18
-6 11 11 24 13 37 8 11 -5 14 -9 8 -9 -7 -1 -13 -8 -13 -16 0 -16 16 -20 24
-6 3 5 18 12 33 16 15 3 31 12 35 18 4 6 10 9 13 5 4 -4 -12 -24 -35 -46 -37
-34 -40 -40 -23 -46 15 -6 8 -13 -37 -36 -37 -19 -57 -35 -60 -51 -3 -13 -14
-26 -24 -27 -11 -2 -31 -15 -45 -28 -28 -26 -46 -30 -56 -13 -4 6 -19 7 -35 4
-35 -8 -45 7 -26 37 8 13 18 45 21 71 7 48 7 48 -19 41 -21 -5 -26 -3 -26 14
0 11 -7 25 -15 32 -9 8 -13 21 -9 36 4 16 1 26 -9 30 -9 3 -13 13 -10 25 3 11
-1 27 -10 37 -8 9 -18 28 -22 42 -13 43 -87 131 -127 151 -22 11 -78 31 -126
45 -107 32 -195 29 -269 -7 -41 -20 -48 -28 -46 -51 2 -31 -2 -33 -97 -48 -36
-5 -81 -14 -100 -20 -19 -5 -45 -10 -57 -10 -48 0 -137 -43 -180 -87 -24 -25
-43 -49 -43 -55 0 -5 -12 -25 -26 -44 -23 -29 -24 -35 -10 -40 9 -3 16 -17 16
-30 0 -13 5 -24 10 -24 6 0 10 5 10 12 0 14 48 78 59 78 15 0 73 59 67 69 -3
5 0 13 7 19 17 13 133 49 184 57 24 4 47 14 52 23 6 11 28 17 70 20 51 4 61 2
61 -12 0 -8 -11 -18 -24 -22 -21 -5 -26 -14 -32 -61 -6 -50 -3 -62 24 -117 57
-113 114 -151 263 -177 69 -11 93 -7 222 34 45 14 47 14 47 -4 0 -10 -4 -19
-9 -19 -5 0 -12 -10 -15 -22 -9 -33 -62 -87 -101 -104 -31 -13 -37 -12 -55 3
-11 10 -20 25 -20 35 0 12 -8 18 -21 18 -11 0 -27 7 -35 15 -21 21 -52 19 -50
-2 0 -10 -9 -22 -22 -28 -12 -5 -25 -17 -27 -26 -9 -26 -35 -32 -35 -9 0 16
-7 19 -37 18 -49 -1 -101 8 -117 21 -6 6 -22 8 -34 4 -50 -13 -99 57 -49 71
20 7 21 8 3 15 -10 4 -33 5 -50 2 -17 -2 -25 -6 -18 -8 27 -10 9 -23 -32 -23
-44 0 -74 19 -61 40 10 16 -30 12 -70 -7 -39 -19 -41 -21 -21 -49 10 -13 28
-20 58 -22 165 -9 188 -13 188 -32 0 -10 -9 -22 -20 -25 -32 -10 -23 -22 22
-28 44 -6 61 -1 40 12 -21 13 54 34 77 22 11 -6 32 -11 48 -11 40 0 62 -15 45
-32 -23 -23 -12 -31 37 -24 30 4 52 2 56 -4 4 -6 -4 -10 -19 -10 -14 0 -26 -3
-26 -7 0 -5 -17 -8 -37 -8 -49 0 -54 -18 -8 -26 28 -5 43 -1 68 17 52 38 81
52 120 59 25 5 37 4 37 -4 0 -18 39 -12 60 9 18 18 23 19 35 6 23 -23 18 -34
-25 -56 -69 -35 -92 -122 -27 -106 6 1 9 1 5 -1 -15 -9 -8 -23 12 -23 11 0 20
-4 20 -8 0 -13 -34 -11 -42 2 -5 8 -13 7 -25 -2 -10 -6 -29 -17 -43 -23 l-25
-11 35 -17 c19 -10 39 -14 45 -9 5 4 17 8 26 8 10 0 41 23 71 51 73 70 96 85
110 71 8 -8 8 -15 0 -25 -7 -8 -9 -17 -5 -20 3 -4 0 -13 -7 -22 -18 -22 -4
-31 18 -12 22 20 45 22 40 5 -3 -7 -15 -15 -29 -18 -32 -8 -38 -39 -7 -42 13
0 30 -2 38 -2 8 -1 15 -9 15 -18 0 -19 38 -50 64 -53 9 -1 33 -10 54 -19 31
-14 36 -19 28 -34 -8 -15 -4 -20 25 -31 19 -7 39 -22 45 -34 6 -12 29 -45 50
-73 35 -46 39 -55 34 -95 -8 -61 -24 -109 -38 -109 -7 -1 -25 -11 -40 -24 -24
-20 -26 -24 -12 -30 9 -3 24 -2 34 3 9 5 54 8 99 6 69 -4 83 -2 91 13 8 12 10
13 11 3 0 -8 3 -11 7 -8 3 4 12 2 19 -4 18 -15 84 -29 84 -18 0 4 -18 13 -39
19 -23 6 -58 28 -84 54 -36 34 -48 55 -57 97 l-12 54 40 62 c50 74 114 131
158 139 18 3 38 12 45 20 6 8 23 14 38 14 15 0 33 6 40 13 10 10 14 9 22 -5 6
-10 17 -18 24 -18 8 0 15 -9 15 -20 0 -25 8 -25 27 -3 13 16 13 16 4 -3 -6
-12 -7 -25 -3 -29 4 -5 -1 -5 -10 -2 -10 3 -20 2 -23 -3 -4 -6 2 -10 12 -10
10 0 29 -7 42 -16 17 -12 33 -15 64 -9 23 3 80 9 127 12 47 3 100 11 119 19
18 8 68 15 110 15 42 1 65 4 51 6 -14 3 -29 8 -35 13 -5 4 -36 15 -67 24 -36
10 -62 24 -68 37 -9 16 -14 18 -26 8 -11 -9 -14 -8 -14 9 0 11 -7 23 -16 26
-28 11 -78 6 -98 -9 -18 -14 -15 -15 37 -15 55 0 74 -11 41 -24 -8 -3 -12 -10
-9 -16 10 -17 -82 -12 -99 5 -8 8 -22 15 -30 15 -21 0 -21 16 0 24 10 4 14 14
11 26 -7 29 3 31 83 20 75 -11 123 -5 117 14 -2 6 -18 12 -35 14 -38 4 -43 22
-7 22 14 0 25 3 25 6 0 12 -35 33 -55 34 -19 1 -19 1 -2 14 22 17 21 22 -3 46
-26 26 -25 34 3 48 27 14 155 19 180 8 13 -6 17 -5 15 5 -2 8 7 15 21 17 23 4
23 4 -5 -32 -21 -27 -37 -36 -58 -36 -31 0 -105 -30 -106 -42 0 -5 7 -8 15 -8
8 0 15 -4 15 -10 0 -13 51 -13 108 2 41 10 47 9 56 -7 19 -32 73 -79 96 -82 8
-2 60 -6 115 -9 87 -5 107 -3 152 15 39 15 59 18 77 11 24 -9 24 -9 8 -44 -9
-19 -19 -33 -24 -30 -4 3 -8 -4 -8 -15 0 -11 5 -23 10 -26 16 -10 -7 -34 -29
-32 -29 2 -88 -31 -94 -53 -6 -22 1 -25 83 -34 58 -7 104 25 102 72 0 22 5 31
19 35 22 6 140 -20 153 -33 6 -6 22 -10 37 -10 34 0 41 -10 24 -33 -7 -10 -19
-15 -29 -11 -13 5 -15 0 -12 -27 3 -28 8 -34 25 -32 11 2 21 -2 21 -8 0 -7 9
-9 22 -6 12 4 28 1 35 -5 8 -6 13 -7 13 0 0 9 46 24 80 26 8 1 16 10 19 21 2
11 8 23 13 26 6 4 7 15 4 26 -8 25 -85 103 -102 103 -6 0 -14 9 -17 21 -3 12
-10 19 -15 16 -7 -5 -50 34 -44 41 17 20 -72 52 -91 33 -6 -6 -20 -11 -31 -11
-20 1 -19 2 3 14 16 9 20 15 12 21 -7 4 -10 13 -7 21 3 8 1 14 -4 14 -5 0 -9
10 -7 23 1 17 -4 23 -25 25 -27 3 -138 -41 -138 -56 0 -15 -86 -29 -155 -25
-78 5 -116 18 -108 39 3 8 -1 21 -8 30 -10 13 -10 17 2 25 16 11 124 2 152
-13 14 -7 26 -6 43 3 23 12 33 39 15 39 -4 0 -19 10 -33 23 -41 37 -79 52
-130 50 -48 -1 -49 -1 -23 13 32 17 152 27 157 13 2 -5 14 -11 27 -14 14 -2
28 -8 33 -13 15 -15 58 -1 74 23 8 13 33 30 55 39 21 9 39 21 39 28 0 7 3 23
6 36 5 16 2 22 -9 22 -13 0 -14 6 -5 38 5 20 14 41 19 47 5 5 9 17 9 27 0 9
10 22 22 29 18 10 20 9 15 -5 -3 -8 -2 -18 3 -21 6 -4 10 0 10 8 0 8 7 18 16
21 22 9 24 8 24 -10 0 -13 7 -15 35 -10 29 6 35 4 35 -10 0 -13 3 -14 14 -5
10 9 24 7 59 -8 25 -11 47 -17 50 -14 8 7 19 -35 13 -46 -7 -11 63 4 75 16 6
6 1 17 -11 28 -11 10 -20 26 -20 36 0 10 -4 21 -10 24 -5 3 -10 15 -10 25 0
11 -9 24 -20 30 -11 6 -20 19 -20 28 0 27 -23 72 -37 72 -7 0 -13 5 -13 11 0
5 -5 7 -10 4 -5 -3 -10 -3 -10 2 0 11 -49 33 -72 33 -12 0 -18 7 -18 21 0 30
-20 45 -73 53 -25 4 -49 11 -52 17 -4 5 -15 9 -26 9 -10 0 -19 7 -19 15 0 8
-4 15 -10 15 -5 0 -10 7 -10 15 0 10 -11 15 -35 15 -37 0 -44 10 -21 29 15 13
15 77 0 74 -5 -1 -29 -10 -54 -19 -48 -17 -64 -34 -69 -75 0 -6 -10 -8 -23 -4
-17 4 -19 4 -9 -3 30 -21 -59 -43 -104 -26 -13 6 -14 9 -3 16 9 6 6 7 -9 3
-13 -4 -23 -2 -23 4 0 6 -18 15 -39 22 -22 6 -37 17 -35 23 6 14 -61 38 -105
36 -18 0 -48 -7 -65 -14 -17 -7 -49 -16 -71 -20 -22 -4 -47 -14 -55 -21 -25
-22 -131 -66 -161 -67 -21 -1 -38 -13 -66 -50 -21 -27 -48 -62 -60 -77 -13
-16 -23 -39 -23 -51 0 -20 -12 -39 -68 -106 -16 -18 -20 -19 -50 -7 -31 13
-32 14 -32 79 0 64 9 95 37 122 7 8 11 17 8 22 -3 4 1 10 9 13 7 3 15 19 18
36 2 16 1 28 -4 25 -4 -3 -9 7 -10 23 0 15 -2 34 -2 42 -1 13 -56 36 -56 24 0
-4 -8 1 -17 9 -10 8 -31 19 -48 24 -29 8 -28 9 15 12 55 4 60 9 65 60 2 29 -1
42 -11 46 -12 5 -14 18 -9 63 3 32 10 60 15 61 6 2 10 17 10 33 0 16 5 29 10
29 6 0 10 12 10 28 0 15 8 34 18 43 9 8 27 28 40 43 31 40 36 28 16 -33 l-16
-51 26 -25 c21 -19 26 -30 20 -48 -16 -47 -8 -104 14 -109 16 -5 18 -14 16
-64 -4 -68 -9 -106 -19 -151 -5 -22 -4 -33 4 -33 6 0 11 5 11 11 0 7 11 9 29
6 25 -5 38 1 81 40 28 25 49 48 46 51 -3 2 1 16 8 31 7 14 16 42 20 62 7 41
40 89 61 89 22 0 40 -29 27 -42 -18 -18 -15 -75 4 -82 26 -10 94 -7 117 6 29
16 47 18 47 7 0 -5 10 -9 23 -8 12 0 16 3 9 6 -8 3 1 15 25 34 21 16 42 29 46
29 9 0 67 58 67 66 0 2 -7 4 -15 4 -8 0 -15 5 -15 11 0 16 -62 38 -94 32 -25
-5 -28 -4 -21 16 5 17 2 21 -17 22 -13 1 -28 1 -34 0 -7 -1 -14 5 -18 14 -7
18 -26 20 -26 3 0 -20 -65 -59 -99 -60 -26 -1 -31 -5 -31 -25 0 -26 -15 -31
-24 -7 -10 25 -7 83 5 106 25 47 15 98 -14 69 -6 -6 -21 -11 -34 -11 -21 0
-29 17 -25 51 1 4 -10 10 -23 13 -16 4 -30 19 -39 41 -8 19 -21 35 -28 35 -8
0 -21 13 -31 29 -14 24 -16 38 -8 70 8 39 8 42 -24 61 -18 11 -37 20 -42 20
-6 0 -21 11 -34 24 -19 18 -40 25 -94 31 -38 4 -72 8 -76 10 -3 2 -28 -3 -56
-11 -48 -14 -54 -14 -90 4 -41 21 -56 19 -87 -10 -24 -22 -36 -22 -81 -4 -18
8 -43 12 -55 9 -12 -3 -29 2 -42 13 -15 14 -22 16 -25 7 -6 -18 -21 -16 -25 2
-2 10 -7 12 -18 5z m135 -160 c14 -27 30 -50 35 -50 16 0 23 -46 11 -69 -10
-17 -8 -26 10 -51 20 -27 21 -33 10 -70 -7 -23 -19 -44 -27 -47 -8 -3 -14 -11
-14 -19 0 -8 -7 -14 -15 -14 -9 0 -15 6 -14 13 4 20 -12 65 -27 78 -10 8 -11
15 -4 23 11 14 -2 115 -17 125 -6 3 -8 33 -5 69 6 77 22 81 57 12z m349 -45
c3 -8 -10 -38 -29 -67 -39 -58 -42 -70 -21 -87 17 -14 9 -51 -10 -51 -16 0
-19 -27 -4 -32 17 -5 -1 -49 -19 -46 -12 3 -16 15 -14 53 1 31 -3 53 -12 59
-19 15 -24 72 -6 68 21 -4 41 18 41 46 0 27 35 72 56 72 6 0 14 -7 18 -15z
m-312 -327 c-7 -7 -12 -24 -12 -38 0 -33 -34 -69 -43 -46 -4 9 -2 18 3 21 6 4
10 15 10 25 0 20 39 64 49 55 2 -3 -1 -11 -7 -17z m293 -178 c4 -6 4 -18 1
-27 -5 -12 -9 -13 -21 -3 -8 7 -15 19 -15 26 0 16 26 19 35 4z m73 -141 c-3
-8 -7 -3 -11 10 -4 17 -3 21 5 13 5 -5 8 -16 6 -23z m-80 -15 c16 -33 0 -64
-28 -57 -11 3 -20 9 -20 14 0 5 -4 9 -10 9 -20 0 -10 -42 10 -47 33 -9 20 -37
-17 -41 -28 -3 -36 2 -53 30 -11 18 -20 27 -20 21 0 -18 -17 -16 -24 2 -8 23
22 45 64 45 29 0 41 6 54 25 21 32 30 31 44 -1z m-946 -103 c-29 -24 -28 -41
3 -41 26 0 33 -14 14 -26 -6 -4 -8 -20 -5 -39 5 -22 2 -36 -9 -45 -18 -15 -20
-86 -2 -93 24 -8 -4 -21 -43 -19 -27 2 -41 -2 -48 -14 -13 -24 -52 -1 -52 31
0 13 -4 27 -10 30 -17 11 -11 78 13 125 23 47 104 110 141 110 18 0 18 -1 -2
-19z m1793 -4 c18 -15 24 -28 19 -40 -5 -15 -11 -13 -40 19 -19 19 -34 37 -34
40 0 12 32 1 55 -19z m250 -37 c6 -19 6 -19 43 0 20 11 39 20 42 20 3 0 4 -18
2 -40 -4 -40 -4 -40 22 -30 21 8 30 6 45 -9 11 -11 27 -18 38 -18 12 1 19 -6
21 -21 2 -13 19 -39 39 -58 20 -20 32 -41 29 -50 -6 -16 -26 -19 -26 -4 0 6
-9 6 -25 0 -15 -6 -26 -6 -30 0 -4 6 -20 10 -37 10 -22 0 -29 4 -25 14 4 10 0
14 -14 13 -10 -1 -19 -4 -19 -8 0 -11 -83 -18 -102 -8 -26 14 -53 3 -73 -28
-11 -17 -12 -23 -4 -17 31 20 84 33 93 24 23 -23 -77 -63 -156 -62 -44 1 -58
-3 -58 -13 0 -8 -11 -22 -25 -31 -14 -9 -23 -19 -20 -22 9 -9 -17 -32 -35 -32
-10 0 -21 7 -24 16 -3 8 -10 13 -15 10 -5 -4 -11 0 -13 6 -4 10 -20 7 -64 -10
-67 -26 -166 -76 -206 -104 -40 -28 -80 -23 -106 12 -18 24 -20 33 -11 49 10
15 28 19 98 23 147 9 297 74 394 172 49 49 97 131 97 164 0 22 25 47 38 38 5
-3 22 -1 38 4 42 12 42 12 49 -10z m-340 -40 c6 -9 -33 -30 -56 -30 -18 0 -9
21 14 30 29 12 35 12 42 0z m115 -10 c0 -5 -5 -10 -11 -10 -5 0 -7 5 -4 10 3
6 8 10 11 10 2 0 4 -4 4 -10z m-352 -20 c-11 -17 -39 -20 -57 -4 -10 9 14 24
40 24 27 0 28 -2 17 -20z m-1205 -17 c11 -10 -13 -33 -34 -33 -24 0 -25 27 -1
33 27 7 28 7 35 0z m109 -73 c25 -58 17 -104 -25 -148 -33 -35 -85 -62 -118
-62 -27 0 -23 19 6 30 14 5 25 16 25 24 0 7 7 20 16 27 27 22 39 65 46 161 3
30 6 34 17 25 7 -7 22 -32 33 -57z m378 21 c0 -5 -11 -11 -25 -13 -28 -6 -35
8 -7 15 28 8 32 7 32 -2z m640 -52 c0 -5 -7 -9 -15 -9 -15 0 -20 12 -9 23 8 8
24 -1 24 -14z m496 -138 c-7 -11 -46 -21 -46 -12 0 13 13 21 32 21 11 0 17 -4
14 -9z m-26 -46 c0 -3 -24 -17 -54 -31 -29 -14 -59 -36 -66 -50 -15 -26 -46
-29 -44 -3 1 9 -4 16 -10 16 -6 0 -23 3 -38 6 -15 4 -30 3 -33 -3 -9 -15 -25
-12 -25 5 0 18 79 55 118 55 25 0 25 0 6 -16 -18 -15 -18 -15 11 -9 17 4 41
12 55 20 25 13 80 20 80 10z m-1150 -35 c0 -5 -4 -10 -10 -10 -5 0 -10 5 -10
10 0 6 5 10 10 10 6 0 10 -4 10 -10z m1160 -15 c-7 -8 -17 -15 -22 -15 -6 0
-5 7 2 15 7 8 17 15 22 15 6 0 5 -7 -2 -15z m68 -33 c2 -7 -2 -10 -12 -6 -9 3
-16 11 -16 16 0 13 23 5 28 -10z m-371 -10 c-10 -10 -17 -24 -17 -30 0 -7 -7
-12 -15 -12 -22 0 -18 19 8 41 28 24 45 25 24 1z m83 -37 c0 -8 -6 -15 -14
-15 -8 0 -21 -3 -30 -6 -25 -9 -19 12 7 24 31 15 37 14 37 -3z m-192 -37 c3
-14 -3 -18 -27 -18 -29 0 -41 17 -24 34 13 13 48 1 51 -16z m-763 -18 c-3 -5
-13 -10 -21 -10 -8 0 -12 5 -9 10 3 6 13 10 21 10 8 0 12 -4 9 -10z m1030 -80
c9 -14 -31 -27 -104 -36 -43 -5 -61 -3 -61 5 0 6 12 11 28 11 15 0 38 7 52 14
30 17 76 20 85 6z m-1205 -62 c0 -16 -3 -19 -11 -11 -6 6 -8 16 -5 22 11 17
16 13 16 -11z m140 -124 c0 -8 9 -14 20 -14 11 0 20 6 20 14 0 14 42 26 92 26
25 0 28 -2 19 -14 -10 -12 -8 -13 9 -9 19 5 20 3 9 -20 -13 -28 -46 -49 -36
-22 7 16 -8 31 -17 17 -3 -5 -21 -8 -41 -7 -29 1 -35 -3 -35 -20 0 -12 5 -26
10 -31 8 -8 7 -19 -1 -37 -18 -40 -38 -34 -34 9 5 49 -41 94 -97 94 -46 0 -51
20 -5 21 17 0 41 4 52 8 24 10 35 5 35 -15z m665 -74 c3 -5 2 -10 -4 -10 -5 0
-13 5 -16 10 -3 6 -2 10 4 10 5 0 13 -4 16 -10z"/>
<path d="M2210 2120 c0 -5 5 -10 10 -10 6 0 10 5 10 10 0 6 -4 10 -10 10 -5 0
-10 -4 -10 -10z"/>
<path d="M3474 1974 c-18 -15 -18 -15 4 -9 16 5 22 2 22 -9 0 -9 5 -16 11 -16
6 0 8 7 5 16 -3 9 -6 20 -6 25 0 13 -14 11 -36 -7z"/>
<path d="M3570 1960 c0 -5 4 -10 9 -10 6 0 13 5 16 10 3 6 -1 10 -9 10 -9 0
-16 -4 -16 -10z"/>
<path d="M3095 1750 c-3 -5 -1 -10 4 -10 6 0 11 5 11 10 0 6 -2 10 -4 10 -3 0
-8 -4 -11 -10z"/>
<path d="M3020 1660 c0 -5 5 -10 10 -10 6 0 10 5 10 10 0 6 -4 10 -10 10 -5 0
-10 -4 -10 -10z"/>
<path d="M3508 3063 c-10 -2 -18 -10 -18 -16 0 -7 -3 -22 -6 -34 -8 -30 4 -29
77 3 64 29 75 44 32 44 -16 0 -37 2 -48 4 -11 2 -28 2 -37 -1z"/>
<path d="M1390 3030 c0 -5 5 -10 10 -10 6 0 10 5 10 10 0 6 -4 10 -10 10 -5 0
-10 -4 -10 -10z"/>
<path d="M3465 3030 c-3 -5 -1 -10 4 -10 6 0 11 5 11 10 0 6 -2 10 -4 10 -3 0
-8 -4 -11 -10z"/>
<path d="M3715 2970 c-20 -23 -17 -24 20 -10 14 5 23 14 20 20 -9 15 -20 12
-40 -10z"/>
<path d="M395 2900 c-17 -7 -17 -9 -2 -9 9 -1 20 -1 24 -2 4 0 9 4 11 10 4 13
-5 13 -33 1z"/>
<path d="M3345 2894 c-9 -9 -13 -19 -10 -22 3 -3 15 4 28 16 12 12 16 22 10
22 -6 0 -19 -7 -28 -16z"/>
<path d="M3500 2849 c0 -5 5 -7 10 -4 6 3 10 8 10 11 0 2 -4 4 -10 4 -5 0 -10
-5 -10 -11z"/>
<path d="M3265 2799 c-12 -19 3 -22 27 -5 l22 16 -21 0 c-12 0 -25 -5 -28 -11z"/>
<path d="M2868 2623 c-25 -30 -30 -43 -15 -43 7 0 23 14 35 30 25 33 7 44 -20
13z"/>
<path d="M450 2610 c0 -5 5 -10 11 -10 5 0 7 5 4 10 -3 6 -8 10 -11 10 -2 0
-4 -4 -4 -10z"/>
<path d="M3638 2583 c7 -3 16 -2 19 1 4 3 -2 6 -13 5 -11 0 -14 -3 -6 -6z"/>
<path d="M1315 2506 c-2 -6 -5 -22 -7 -35 -2 -18 -10 -25 -32 -27 -40 -4 -57
-23 -28 -31 20 -5 22 -10 16 -36 -6 -28 -5 -29 19 -23 14 3 40 0 58 -8 19 -7
39 -12 44 -10 14 5 11 140 -4 157 -15 19 -61 28 -66 13z"/>
<path d="M574 2468 c-4 -6 3 -19 15 -29 17 -14 27 -16 42 -9 26 14 24 25 -6
38 -32 15 -42 15 -51 0z"/>
<path d="M690 2430 c-8 -5 -12 -12 -8 -15 10 -10 49 5 43 16 -8 11 -16 11 -35
-1z"/>
<path d="M526 2394 c-3 -9 -4 -19 -1 -24 3 -4 -2 -10 -10 -14 -8 -3 -15 -10
-15 -16 0 -6 4 -8 10 -5 6 3 7 -1 4 -9 -10 -25 22 -19 50 9 14 14 32 25 41 25
8 0 15 5 15 10 0 6 -6 10 -14 10 -8 0 -16 4 -18 8 -1 5 -15 12 -29 15 -20 5
-29 2 -33 -9z"/>
<path d="M3550 2399 c0 -5 5 -7 10 -4 6 3 10 8 10 11 0 2 -4 4 -10 4 -5 0 -10
-5 -10 -11z"/>
<path d="M3085 2390 c-3 -5 1 -10 10 -10 9 0 13 5 10 10 -3 6 -8 10 -10 10 -2
0 -7 -4 -10 -10z"/>
<path d="M430 2380 c0 -5 9 -10 20 -10 11 0 20 5 20 10 0 6 -9 10 -20 10 -11
0 -20 -4 -20 -10z"/>
<path d="M2485 2329 c-10 -15 3 -25 16 -12 7 7 7 13 1 17 -6 3 -14 1 -17 -5z"/>
<path d="M3055 2330 c-4 -6 15 -10 50 -10 35 0 54 4 50 10 -3 6 -26 10 -50 10
-24 0 -47 -4 -50 -10z"/>
<path d="M2490 2290 c0 -5 5 -10 11 -10 5 0 7 5 4 10 -3 6 -8 10 -11 10 -2 0
-4 -4 -4 -10z"/>
<path d="M2495 2250 c3 -5 8 -10 11 -10 2 0 4 5 4 10 0 6 -5 10 -11 10 -5 0
-7 -4 -4 -10z"/>
<path d="M1995 1817 c-6 -7 -15 -18 -19 -25 -7 -11 -4 -11 13 0 12 7 21 18 21
25 0 16 -2 16 -15 0z"/>
<path d="M1870 1769 c0 -5 5 -7 10 -4 6 3 10 8 10 11 0 2 -4 4 -10 4 -5 0 -10
-5 -10 -11z"/>
<path d="M2015 1752 c-16 -8 -24 -17 -17 -20 14 -4 72 19 72 30 0 12 -21 8
-55 -10z"/>
<path d="M983 1719 c-18 -5 -33 -16 -33 -24 0 -16 16 -21 22 -7 2 5 21 16 43
25 43 17 21 21 -32 6z"/>
<path d="M4030 1678 c0 -18 15 -39 26 -37 5 1 17 -1 27 -5 23 -11 48 0 41 17
-11 29 -94 51 -94 25z"/>
<path d="M1130 1658 c-29 -8 -32 -11 -17 -19 26 -15 92 -7 92 11 0 19 -29 22
-75 8z"/>
<path d="M1264 1615 c-15 -14 -25 -27 -23 -29 5 -5 90 17 108 28 11 7 11 10 0
17 -25 16 -58 9 -85 -16z"/>
<path d="M4159 1560 c26 -22 41 -26 41 -10 0 6 -12 15 -26 20 -37 15 -42 12
-15 -10z"/>
<path d="M935 1550 c-3 -5 -1 -10 4 -10 6 0 11 5 11 10 0 6 -2 10 -4 10 -3 0
-8 -4 -11 -10z"/>
<path d="M1123 1490 c-13 -5 -23 -12 -23 -15 0 -8 33 -1 55 13 24 14 2 15 -32
2z"/>
<path d="M1423 1475 c-17 -13 -17 -14 0 -21 11 -4 24 -1 34 8 13 13 13 16 0
21 -8 3 -23 0 -34 -8z"/>
<path d="M840 1460 c0 -3 18 -17 41 -29 33 -19 45 -21 67 -12 27 11 56 13 121
8 47 -3 50 19 4 28 -48 10 -233 14 -233 5z"/>
<path d="M1175 1450 c-3 -6 1 -7 9 -4 18 7 21 14 7 14 -6 0 -13 -4 -16 -10z"/>
<path d="M1165 1413 c-10 -3 -28 -11 -40 -18 -11 -8 -47 -18 -79 -24 -64 -12
-106 -33 -106 -54 0 -10 12 -12 53 -6 28 5 75 11 102 14 56 7 134 42 143 63 9
25 -25 37 -73 25z"/>
<path d="M1210 1330 c-8 -5 -27 -11 -41 -14 -14 -3 -31 -16 -38 -29 -8 -16
-28 -28 -61 -36 -35 -9 -50 -18 -54 -34 -3 -11 -4 -23 -2 -24 2 -2 45 0 96 5
84 9 95 12 124 41 l31 31 -32 -6 c-29 -6 -31 -5 -26 17 3 13 13 32 21 42 16
18 7 22 -18 7z"/>
<path d="M1600 1213 c-20 -7 -50 -34 -50 -45 0 -16 57 -8 73 10 30 33 19 50
-23 35z"/>
<path d="M1621 1129 c-30 -13 -55 -18 -74 -13 -16 3 -39 1 -51 -5 -11 -6 -33
-15 -48 -21 -31 -11 -40 -45 -10 -36 9 3 58 8 107 12 75 5 95 10 118 30 28 24
36 55 15 53 -7 0 -33 -9 -57 -20z"/>
<path d="M3700 1055 c0 -8 5 -15 10 -15 6 0 10 7 10 15 0 8 -4 15 -10 15 -5 0
-10 -7 -10 -15z"/>
<path d="M2572 1052 c-24 -4 -47 -36 -37 -52 4 -6 18 -10 33 -10 15 0 90 -1
167 -3 100 -3 147 0 166 9 14 7 53 14 87 16 104 5 69 18 -55 20 -256 5 -325 9
-333 18 -3 3 -15 4 -28 2z"/>
<path d="M1625 1003 c-16 -3 -34 -8 -40 -13 -5 -4 -27 -13 -47 -19 -21 -7 -38
-17 -38 -22 0 -13 23 -11 45 5 11 7 48 15 82 18 35 2 66 8 70 12 8 8 -16 26
-32 24 -5 0 -23 -3 -40 -5z"/>
<path d="M0 931 c0 -24 1 -42 3 -40 1 2 15 19 32 38 29 32 29 33 6 26 -16 -5
-26 -3 -32 6 -6 9 -9 -2 -9 -30z"/>
<path d="M2864 908 c-3 -5 -15 -7 -26 -5 -11 3 -32 1 -47 -5 l-26 -10 33 -14
c29 -13 39 -12 78 1 25 8 50 13 55 9 5 -3 19 -2 31 2 17 5 18 8 7 14 -24 14
-98 19 -105 8z"/>
<path d="M2640 895 c0 -9 7 -18 15 -22 18 -6 105 16 105 27 0 4 -27 8 -60 9
-48 1 -60 -1 -60 -14z"/>
<path d="M2490 881 c-22 -6 -19 -8 20 -14 48 -6 56 -4 45 12 -7 12 -27 13 -65
2z"/>
<path d="M835 873 c-38 -9 -42 -26 -5 -18 44 9 74 25 45 24 -11 -1 -29 -3 -40
-6z"/>
<path d="M23 856 c-13 -6 -23 -17 -23 -25 0 -10 7 -7 25 9 21 20 32 33 23 29
-2 -1 -13 -6 -25 -13z"/>
<path d="M1039 865 c-3 -2 -22 -7 -43 -9 -47 -6 -106 -27 -106 -38 0 -12 19
-10 100 13 77 21 111 39 74 39 -12 0 -23 -2 -25 -5z"/>
<path d="M2560 811 c0 -5 7 -14 15 -21 8 -7 15 -19 15 -27 0 -13 4 -13 25 1
14 9 31 13 38 9 7 -4 17 -8 23 -9 7 -1 21 -11 33 -23 21 -21 41 -28 41 -13 0
4 -5 13 -12 20 -16 16 -7 22 33 26 47 4 47 21 1 22 -87 3 -132 8 -132 16 0 4
-18 8 -40 8 -22 0 -40 -4 -40 -9z"/>
<path d="M1027 795 c-27 -7 -52 -16 -55 -20 -9 -9 65 5 108 21 46 17 9 16 -53
-1z"/>
<path d="M0 529 c0 -5 5 -7 10 -4 5 3 10 8 10 11 0 2 -4 4 -10 4 -5 0 -10 -5
-10 -11z"/>
<path d="M0 399 c0 -18 2 -19 15 -9 8 7 15 16 15 21 0 5 -7 9 -15 9 -9 0 -15
-9 -15 -21z"/>
<path d="M22 200 c-12 -12 -22 -31 -22 -43 1 -21 2 -21 25 6 14 15 25 35 25
43 0 18 -2 18 -28 -6z"/>
<path d="M39 101 c-9 -10 -20 -36 -26 -59 l-11 -42 34 0 c31 0 34 2 34 31 0
17 9 44 21 60 l20 29 -28 -1 c-15 0 -35 -9 -44 -18z"/>
<path d="M2 80 c0 -14 2 -19 5 -12 2 6 2 18 0 25 -3 6 -5 1 -5 -13z"/>
<path d="M115 10 c-4 -6 5 -10 20 -10 15 0 24 4 20 10 -8 13 -32 13 -40 0z"/>
</g>
</svg>
